# Blender 5.1.0
# www.blender.org
mtllib gem.mtl
o Circle
v -1.959204 2.760822 4.036398
v -0.731976 2.728933 4.390610
v -2.347120 2.995625 2.741104
v -1.468611 2.465122 2.064551
v -0.667793 2.615968 1.924614
v 0.080025 2.767720 2.559601
v 0.104825 2.858195 3.911942
v -1.236697 4.215558 4.074443
v -1.523012 5.107336 3.252972
v -0.981741 4.414303 2.189433
v -0.490575 4.645091 2.434026
v 0.065164 3.703515 4.013977
v -1.029499 1.156151 3.369409
v -0.982957 0.739959 3.043254
v -1.174352 1.409739 2.655297
v -0.843009 1.677621 2.549653
v -0.371189 1.762558 3.390717
v -1.136827 1.048880 3.093703
v -0.973360 5.717609 3.138046
v -0.518814 5.048690 3.455263
v -0.339917 4.715603 2.945888
v -1.089787 5.353756 2.864012
v -1.254102 5.243104 2.953218
v -0.921931 3.310266 4.514179
v 0.256330 3.750766 2.780092
v -0.295783 3.518475 1.829385
v -0.970204 5.109022 3.577868
v -0.893075 5.498632 2.951213
v -2.284845 3.393190 2.650431
v -2.073955 3.574367 3.937921
v -1.296277 5.336491 3.322250
v -1.523378 3.518475 1.829385
vn -0.0426 -0.5483 -0.8352
vn 0.0960 -0.4657 -0.8797
vn -0.7541 -0.5373 -0.3777
vn -0.6981 -0.4879 -0.5239
vn -0.8508 -0.4992 0.1643
vn -0.6566 -0.5806 0.4815
vn -0.2531 -0.4927 0.8326
vn 0.9154 -0.4025 0.0101
vn 0.7187 -0.6054 -0.3420
vn 0.6134 -0.5140 -0.5996
vn -0.8820 -0.3981 -0.2522
vn 0.4535 -0.5178 0.7254
vn 0.8314 -0.3509 -0.4309
vn 0.1060 -0.4755 -0.8733
vn -0.7565 -0.4537 0.4710
vn 0.6480 -0.3391 -0.6821
vn 0.8686 -0.0451 -0.4934
vn 0.9845 -0.1751 -0.0063
vn 0.9877 0.0277 0.1541
vn 0.5042 -0.0801 0.8598
vn 0.4633 -0.0368 0.8854
vn -0.2727 -0.2845 0.9191
vn -0.4383 0.0468 0.8976
vn -0.9579 -0.1026 0.2683
vn -0.9740 0.1831 0.1338
vn -0.6696 -0.1948 -0.7167
vn -0.7294 -0.0415 -0.6828
vn -0.1270 -0.2224 -0.9666
vn -0.0000 -0.1049 -0.9945
vn 0.4755 -0.5406 0.6940
vn 0.4796 -0.5381 0.6931
vn 0.2478 0.4614 0.8519
vn -0.6464 0.4849 -0.5892
vn -0.6814 0.4713 -0.5600
vn 0.2896 0.4480 0.8458
vn -0.0019 0.5176 -0.8556
vn 0.7770 0.5509 -0.3046
vn 0.8523 0.5007 0.1512
vn 0.9088 0.4145 0.0481
vn 0.2859 0.5623 0.7760
vn 0.8386 0.5415 -0.0596
vn 0.7752 0.5497 -0.3112
vn -0.1131 0.6206 -0.7759
vn -0.6541 0.5774 -0.4887
vn -0.7206 0.5764 -0.3853
vn -0.3715 0.2979 0.8793
vn 0.7402 0.4128 -0.5307
vn 0.0956 0.4616 0.8819
vn -0.5149 0.5286 0.6748
vn 0.7857 0.5380 -0.3054
vn -0.9218 0.3751 0.0982
vn -0.7475 0.4899 -0.4487
vn -0.7242 0.6770 0.1310
vn -0.2221 0.5704 0.7908
vn -0.6670 0.4904 0.5610
vn -0.3426 0.4410 0.8295
vn -0.0000 0.3729 -0.9279
vn -0.3432 0.5215 -0.7812
vn 0.1218 0.5881 -0.7995
vn 0.1933 0.4897 -0.8502
vt 0.000000 0.000000
s 0
f 4/1/1 5/1/1 16/1/1
f 16/1/2 15/1/2 4/1/2
f 18/1/3 3/1/3 15/1/3
f 3/1/4 4/1/4 15/1/4
f 1/1/5 3/1/5 18/1/5
f 13/1/6 1/1/6 18/1/6
f 2/1/7 1/1/7 13/1/7
f 7/1/8 17/1/8 6/1/8
f 16/1/9 6/1/9 17/1/9
f 5/1/10 6/1/10 16/1/10
f 18/1/11 15/1/11 14/1/11
f 17/1/12 13/1/12 14/1/12
f 14/1/13 16/1/13 17/1/13
f 15/1/14 16/1/14 14/1/14
f 18/1/15 14/1/15 13/1/15
f 6/1/16 5/1/16 26/1/16
f 25/1/17 6/1/17 26/1/17
f 6/1/18 25/1/18 7/1/18
f 25/1/19 12/1/19 7/1/19
f 7/1/20 12/1/20 2/1/20
f 12/1/21 24/1/21 2/1/21
f 2/1/22 24/1/22 1/1/22
f 24/1/23 30/1/23 1/1/23
f 1/1/24 30/1/24 3/1/24
f 30/1/25 29/1/25 3/1/25
f 3/1/26 32/1/26 4/1/26
f 29/1/27 32/1/27 3/1/27
f 4/1/28 32/1/28 5/1/28
f 32/1/29 26/1/29 5/1/29
f 2/1/30 13/1/30 17/1/30
f 7/1/31 2/1/31 17/1/31
f 12/1/32 20/1/32 24/1/32
f 23/1/33 22/1/33 32/1/33
f 29/1/34 23/1/34 32/1/34
f 20/1/35 27/1/35 24/1/35
f 22/1/36 28/1/36 11/1/36
f 28/1/37 21/1/37 11/1/37
f 25/1/38 21/1/38 12/1/38
f 20/1/39 12/1/39 21/1/39
f 19/1/40 27/1/40 20/1/40
f 19/1/41 20/1/41 21/1/41
f 19/1/42 21/1/42 28/1/42
f 19/1/43 28/1/43 22/1/43
f 19/1/44 22/1/44 23/1/44
f 19/1/45 23/1/45 9/1/45
f 8/1/46 30/1/46 24/1/46
f 11/1/47 25/1/47 26/1/47
f 8/1/48 24/1/48 27/1/48
f 8/1/49 27/1/49 30/1/49
f 25/1/50 11/1/50 21/1/50
f 9/1/51 29/1/51 30/1/51
f 23/1/52 29/1/52 9/1/52
f 19/1/53 9/1/53 31/1/53
f 27/1/54 19/1/54 31/1/54
f 30/1/55 31/1/55 9/1/55
f 27/1/56 31/1/56 30/1/56
f 10/1/57 26/1/57 32/1/57
f 10/1/58 32/1/58 22/1/58
f 11/1/59 10/1/59 22/1/59
f 26/1/60 10/1/60 11/1/60
l 17 18
